<?xml version="1.0" standalone="no"?>
<!DOCTYPE svg PUBLIC "-//W3C//DTD SVG 20010904//EN"
 "http://www.w3.org/TR/2001/REC-SVG-20010904/DTD/svg10.dtd">
<svg version="1.0" xmlns="http://www.w3.org/2000/svg"
 width="1200.000000pt" height="1200.000000pt" viewBox="0 0 1200.000000 1200.000000"
 preserveAspectRatio="xMidYMid meet">

<g transform="translate(0.000000,1200.000000) scale(0.100000,-0.100000)"
fill="#000000" stroke="none">
<path d="M0 6000 l0 -6000 6000 0 6000 0 0 6000 0 6000 -6000 0 -6000 0 0
-6000z m2627 2324 c429 -201 837 -304 1266 -321 l167 -6 0 -678 c0 -547 -3
-700 -15 -793 -40 -304 -153 -590 -337 -851 -83 -119 -308 -343 -425 -425
-201 -140 -404 -235 -624 -292 -117 -30 -126 -30 -188 -18 -243 48 -596 213
-773 362 l-27 23 45 52 45 52 87 -64 c157 -116 405 -230 609 -279 l71 -18 103
27 c633 163 1108 664 1256 1323 l27 117 3 663 c4 565 2 662 -10 662 -49 0
-288 23 -372 36 -293 45 -616 143 -899 273 l-109 49 -56 -25 c-408 -187 -791
-291 -1185 -323 -71 -5 -135 -10 -143 -10 -22 0 -13 -1258 10 -1375 65 -345
206 -636 426 -880 l81 -89 -47 -48 -47 -48 -29 28 c-16 15 -64 68 -105 117
-245 292 -393 643 -431 1024 -7 60 -11 372 -11 756 l0 652 162 6 c291 11 555
58 838 149 147 48 380 142 479 193 25 13 49 24 53 25 4 0 51 -21 105 -46z
m3223 -156 c72 -34 116 -79 154 -158 l31 -65 0 -485 0 -485 -31 -65 c-38 -79
-81 -124 -154 -159 -49 -23 -67 -26 -160 -26 -92 0 -112 3 -160 26 -63 30
-122 84 -149 137 -39 78 -43 128 -39 602 3 448 3 456 26 512 35 88 107 152
207 185 67 22 209 12 275 -19z m2830 1 c70 -32 116 -79 149 -149 23 -49 26
-67 26 -175 l0 -120 -102 -3 -103 -3 0 85 c0 91 -10 128 -42 163 -45 48 -144
37 -179 -21 -18 -29 -19 -55 -19 -486 0 -431 1 -457 19 -486 35 -58 134 -69
179 -21 34 36 42 72 42 189 l0 111 61 -7 c34 -3 82 -6 106 -6 l45 0 -4 -142
c-3 -129 -6 -149 -29 -198 -52 -112 -146 -171 -285 -178 -155 -8 -257 45 -316
165 l-33 68 0 506 0 506 35 69 c59 115 157 166 310 161 65 -2 98 -9 140 -28z
m-4032 -297 l2 -303 128 3 127 3 3 303 2 303 108 -3 107 -3 0 -715 0 -715
-107 -3 -108 -3 0 311 0 310 -130 0 -130 0 -2 -307 -3 -308 -105 0 -105 0 -3
705 c-1 388 0 711 3 718 3 9 31 12 107 10 l103 -3 3 -303z m1890 291 c6 -10
44 -175 87 -368 42 -192 80 -356 84 -363 5 -8 14 19 24 65 46 225 139 641 147
661 10 22 12 23 152 20 l143 -3 0 -715 0 -715 -107 -3 -108 -3 -1 493 -1 493
-23 -85 c-13 -47 -54 -220 -92 -385 l-68 -300 -66 -3 -66 -3 -27 118 c-28 118
-49 212 -106 463 -17 74 -34 142 -38 150 -4 8 -9 -199 -12 -460 l-5 -475 -100
0 -100 0 -3 709 c-2 561 0 711 10 718 7 4 70 8 140 8 111 0 128 -2 136 -17z
m1480 -90 l3 -103 -196 0 -195 0 0 -200 0 -199 158 -3 157 -3 3 -94 c2 -69 -1
-97 -10 -103 -7 -4 -78 -8 -158 -7 l-145 1 -3 -206 -2 -206 195 0 195 0 0
-105 0 -105 -302 2 -303 3 -3 705 c-1 388 0 711 3 718 3 10 69 12 302 10 l298
-3 3 -102z m1470 95 c5 -7 17 -58 26 -113 9 -55 25 -149 36 -210 10 -60 33
-189 49 -285 17 -96 55 -317 85 -490 31 -173 52 -318 47 -323 -4 -4 -55 -6
-112 -5 -103 3 -104 3 -107 28 -1 14 -12 86 -23 160 l-21 135 -118 -3 -119 -3
-6 -42 c-3 -23 -14 -94 -23 -157 l-17 -115 -103 -3 c-81 -2 -104 0 -108 11 -3
8 18 147 46 308 85 493 90 520 110 634 61 357 82 470 86 477 9 14 260 10 272
-4z m761 2 c136 -18 221 -75 270 -180 23 -49 26 -70 29 -201 6 -202 -22 -291
-112 -365 l-36 -29 98 -320 c54 -176 97 -323 95 -327 -5 -10 -204 -10 -219 0
-9 5 -139 447 -170 575 -6 25 -10 27 -55 27 l-49 0 -2 -302 -3 -303 -107 -3
-108 -3 0 714 c0 393 3 717 7 720 10 10 277 8 362 -3z m1116 -95 l0 -100 -192
-3 -193 -2 0 -200 0 -200 154 0 c131 0 155 -2 160 -16 13 -33 6 -171 -8 -183
-10 -8 -61 -11 -158 -10 l-143 1 -3 -206 -2 -206 192 -2 193 -3 0 -100 0 -100
-300 0 -300 0 -3 705 c-1 388 0 711 3 718 3 10 69 12 302 10 l298 -3 0 -100z
m-8608 -106 c302 -121 610 -195 976 -234 l57 -6 0 -105 0 -104 -70 0 -70 0 0
40 c0 24 -5 42 -12 44 -7 2 -79 13 -159 25 -259 38 -510 107 -787 218 -90 36
-171 63 -180 60 -10 -3 -73 -28 -140 -56 -281 -115 -678 -219 -927 -243 l-30
-3 0 -520 c0 -573 1 -581 67 -780 149 -446 536 -815 984 -938 60 -17 62 -17
150 8 49 15 135 48 191 75 372 177 646 491 772 883 58 181 63 226 68 655 l5
392 69 0 69 0 0 -324 c0 -437 -15 -570 -86 -786 -105 -317 -303 -588 -582
-796 -102 -76 -308 -181 -442 -225 -126 -42 -178 -42 -305 0 -426 143 -760
436 -951 835 -60 127 -85 198 -122 346 l-26 105 -3 597 -4 597 43 5 c24 3 86
10 138 16 296 34 672 139 975 273 l100 44 55 -24 c30 -14 110 -47 177 -74z
m23 -794 l0 -275 275 0 275 0 -2 -252 -3 -253 -272 -3 -273 -2 -2 -273 -3
-272 -250 0 -250 0 -3 272 -2 273 -273 2 -272 3 -3 253 -2 252 275 0 275 0 0
275 0 275 255 0 255 0 0 -275z m5852 -716 c169 -36 258 -156 258 -349 0 -43
-3 -81 -7 -83 -5 -3 -51 -6 -103 -8 l-95 -4 -6 80 c-10 129 -39 165 -134 165
-35 0 -52 -6 -77 -29 l-33 -29 -3 -464 c-2 -449 -2 -464 18 -496 11 -18 32
-37 46 -42 38 -15 97 -12 122 6 45 32 52 62 52 239 l0 166 -57 -2 -58 -3 0
100 0 99 168 3 168 2 -3 -293 -3 -293 -33 -67 c-61 -123 -159 -173 -327 -165
-74 3 -102 9 -148 31 -74 37 -122 94 -147 175 -19 60 -20 94 -20 526 0 553 3
571 103 663 75 69 200 97 319 72z m-3895 -106 c11 -49 49 -217 84 -376 34
-158 66 -284 70 -280 3 5 23 85 43 178 75 347 89 412 106 485 l17 75 146 3
147 3 0 -716 0 -716 -107 3 -108 3 -5 475 c-3 261 -6 472 -8 468 -1 -4 -29
-125 -62 -270 -33 -145 -70 -306 -82 -358 -12 -52 -26 -101 -31 -107 -6 -8
-32 -13 -63 -13 -65 0 -64 -2 -98 150 -30 133 -76 335 -105 465 -12 50 -24
101 -29 115 -4 14 -9 -189 -12 -450 l-5 -475 -102 -3 -103 -3 0 716 0 715 144
0 143 0 20 -87z m1303 83 c0 -2 47 -278 106 -613 128 -742 134 -774 134 -795
0 -16 -12 -18 -109 -18 l-108 0 -11 73 c-7 39 -17 111 -23 160 l-12 87 -118 0
c-137 0 -121 17 -144 -150 -9 -63 -18 -127 -21 -142 l-6 -28 -110 0 -110 0 6
28 c5 24 21 115 112 637 14 83 36 211 49 285 13 74 35 203 50 285 14 83 28
160 30 173 5 22 8 22 145 22 77 0 140 -2 140 -4z m658 -33 c7 -21 62 -206 124
-410 61 -205 115 -373 120 -373 5 0 7 185 6 410 l-3 410 103 0 102 0 0 -715 0
-716 -107 3 -108 3 -135 452 c-74 249 -138 453 -142 453 -5 0 -8 -205 -8 -455
l0 -455 -105 0 -105 0 0 715 0 715 123 0 124 0 11 -37z m1142 27 c0 -5 39
-231 86 -502 47 -271 94 -545 105 -608 10 -63 26 -151 34 -195 23 -126 32
-115 -95 -115 -60 0 -110 3 -111 8 0 4 -10 75 -22 157 l-22 150 -120 0 -120 0
-17 -115 c-9 -63 -20 -134 -23 -157 l-6 -43 -110 0 c-60 0 -109 4 -109 8 0 5
11 69 24 143 13 74 36 204 51 289 14 85 35 202 45 260 11 58 42 240 70 405 28
165 53 306 55 313 5 15 285 18 285 2z m1870 -90 l0 -100 -195 0 -195 0 2 -202
3 -203 150 -2 150 -1 3 -101 3 -101 -156 0 -155 0 0 -210 0 -210 195 0 195 0
0 -100 0 -100 -305 0 -305 0 0 715 0 715 305 0 305 0 0 -100z m656 67 c76 -35
115 -74 151 -152 27 -58 28 -65 28 -225 0 -161 -1 -166 -29 -228 -18 -39 -46
-78 -73 -102 l-44 -38 95 -316 c53 -173 96 -319 96 -325 0 -7 -38 -11 -110
-11 -108 0 -111 1 -120 24 -5 13 -41 138 -80 278 -39 139 -75 264 -79 278 -7
22 -13 25 -55 25 l-47 0 0 -290 c1 -159 -3 -296 -7 -303 -6 -9 -36 -12 -110
-10 l-102 3 -3 713 -2 713 215 -3 c212 -3 216 -3 276 -31z"/>
<path d="M5630 7982 c-70 -34 -70 -35 -70 -520 0 -478 1 -484 62 -522 65 -41
160 -9 185 61 8 24 12 156 12 459 1 400 -1 428 -19 468 -30 67 -100 89 -170
54z"/>
<path d="M9350 7850 c-6 -13 -87 -576 -83 -582 6 -11 161 -10 167 0 3 5 -12
127 -34 273 -42 291 -46 316 -50 309z"/>
<path d="M10100 7760 l0 -213 71 7 c134 12 159 45 159 205 0 167 -27 204 -151
210 l-79 3 0 -212z"/>
<path d="M2410 7035 l0 -275 -275 0 -276 0 3 -112 3 -113 272 -3 273 -2 2
-273 3 -272 113 -3 112 -3 0 276 0 275 275 0 275 0 0 115 0 115 -275 0 -275 0
0 275 0 275 -115 0 -115 0 0 -275z"/>
<path d="M5890 6109 c0 -8 -7 -59 -15 -114 -26 -166 -65 -443 -65 -454 0 -7
32 -11 85 -11 82 0 85 1 85 23 0 35 -78 559 -84 565 -3 3 -6 -1 -6 -9z"/>
<path d="M7691 6125 c-1 -6 -17 -118 -37 -250 -19 -132 -38 -264 -41 -292 l-6
-53 87 0 c74 0 86 2 86 17 0 21 -80 564 -85 578 -2 7 -4 7 -4 0z"/>
<path d="M10100 6235 c0 -3 -1 -96 -1 -207 l0 -203 61 -3 c127 -6 170 46 170
208 0 161 -40 210 -169 210 -34 0 -61 -2 -61 -5z"/>
</g>
</svg>
